<?xml version="1.0" encoding="UTF-8" standalone="no"?>
<!DOCTYPE svg PUBLIC "-//W3C//DTD SVG 1.1//EN"
 "http://www.w3.org/Graphics/SVG/1.1/DTD/svg11.dtd">
<!-- Generated by graphviz version 2.36.0 (20140111.2315)
 -->
<!-- Title: G Pages: 1 -->
<svg width="1016pt" height="184pt"
 viewBox="0.00 0.00 1016.00 184.00" xmlns="http://www.w3.org/2000/svg" xmlns:xlink="http://www.w3.org/1999/xlink">
<g id="graph0" class="graph" transform="scale(1 1) rotate(0) translate(4 180)">
<title>G</title>
<polygon fill="white" stroke="none" points="-4,4 -4,-180 1012,-180 1012,4 -4,4"/>
<g id="clust1" class="cluster"><title>cluster_Global</title>
<path fill="none" stroke="gray" d="M20,-8C20,-8 988,-8 988,-8 994,-8 1000,-14 1000,-20 1000,-20 1000,-156 1000,-156 1000,-162 994,-168 988,-168 988,-168 20,-168 20,-168 14,-168 8,-162 8,-156 8,-156 8,-20 8,-20 8,-14 14,-8 20,-8"/>
<text text-anchor="middle" x="504" y="-155.2" font-family="Times,serif" font-size="11.00" fill="gray">Global</text>
</g>
<g id="clust2" class="cluster"><title>cluster_\Jr</title>
<path fill="none" stroke="gray" d="M28,-16C28,-16 980,-16 980,-16 986,-16 992,-22 992,-28 992,-28 992,-129 992,-129 992,-135 986,-141 980,-141 980,-141 28,-141 28,-141 22,-141 16,-135 16,-129 16,-129 16,-28 16,-28 16,-22 22,-16 28,-16"/>
<text text-anchor="middle" x="504" y="-128.2" font-family="Times,serif" font-size="11.00" fill="gray">Jr</text>
</g>
<!-- \\Jr\\Jeffpack -->
<g id="node1" class="node"><title>\\Jr\\Jeffpack</title>
<polygon fill="none" stroke="black" points="983.309,-114 914.691,-114 914.691,-78 983.309,-78 983.309,-114"/>
<text text-anchor="middle" x="949" y="-92.7" font-family="Courier,monospace" font-size="11.00">Jeffpack</text>
</g>
<!-- \\Jr\\WpScssSettings -->
<g id="node6" class="node"><title>\\Jr\\WpScssSettings</title>
<polygon fill="none" stroke="black" points="842.416,-114 733.584,-114 733.584,-78 842.416,-78 842.416,-114"/>
<text text-anchor="middle" x="788" y="-92.7" font-family="Courier,monospace" font-size="11.00">WpScssSettings</text>
</g>
<!-- \\Jr\\Jeffpack&#45;&gt;\\Jr\\WpScssSettings -->
<g id="edge1" class="edge"><title>\\Jr\\Jeffpack&#45;&gt;\\Jr\\WpScssSettings</title>
<path fill="none" stroke="black" d="M914.668,-96C896.669,-96 873.839,-96 852.589,-96"/>
<polygon fill="none" stroke="black" points="852.313,-92.5001 842.313,-96 852.313,-99.5001 852.313,-92.5001"/>
</g>
<!-- \\Jr\\JeffpackCore -->
<g id="node2" class="node"><title>\\Jr\\JeffpackCore</title>
<polygon fill="none" stroke="black" points="467.713,-114 372.287,-114 372.287,-78 467.713,-78 467.713,-114"/>
<text text-anchor="middle" x="420" y="-92.7" font-family="Courier,monospace" font-size="11.00">JeffpackCore</text>
</g>
<!-- \\Jr\\WpSettingsHelper -->
<g id="node7" class="node"><title>\\Jr\\WpSettingsHelper</title>
<polygon fill="none" stroke="black" points="299.618,-114 178.382,-114 178.382,-78 299.618,-78 299.618,-114"/>
<text text-anchor="middle" x="239" y="-92.7" font-family="Courier,monospace" font-size="11.00">WpSettingsHelper</text>
</g>
<!-- \\Jr\\JeffpackCore&#45;&gt;\\Jr\\WpSettingsHelper -->
<g id="edge2" class="edge"><title>\\Jr\\JeffpackCore&#45;&gt;\\Jr\\WpSettingsHelper</title>
<path fill="none" stroke="black" d="M371.97,-96C353.009,-96 330.738,-96 309.947,-96"/>
<polygon fill="none" stroke="black" points="309.881,-92.5001 299.881,-96 309.88,-99.5001 309.881,-92.5001"/>
</g>
<!-- \\Jr\\MainSettingsPage -->
<g id="node3" class="node"><title>\\Jr\\MainSettingsPage</title>
<polygon fill="none" stroke="black" points="661.618,-114 540.382,-114 540.382,-78 661.618,-78 661.618,-114"/>
<text text-anchor="middle" x="601" y="-92.7" font-family="Courier,monospace" font-size="11.00">MainSettingsPage</text>
</g>
<!-- \\Jr\\MainSettingsPage&#45;&gt;\\Jr\\JeffpackCore -->
<g id="edge3" class="edge"><title>\\Jr\\MainSettingsPage&#45;&gt;\\Jr\\JeffpackCore</title>
<path fill="none" stroke="black" d="M539.898,-96C519.832,-96 497.549,-96 477.747,-96"/>
<polygon fill="none" stroke="black" points="477.643,-92.5001 467.643,-96 477.643,-99.5001 477.643,-92.5001"/>
</g>
<!-- \\Jr\\WpInfoHash -->
<g id="node4" class="node"><title>\\Jr\\WpInfoHash</title>
<polygon fill="none" stroke="black" points="106.011,-87 23.9893,-87 23.9893,-51 106.011,-51 106.011,-87"/>
<text text-anchor="middle" x="65" y="-65.7" font-family="Courier,monospace" font-size="11.00">WpInfoHash</text>
</g>
<!-- \\Jr\\WpScss -->
<g id="node5" class="node"><title>\\Jr\\WpScss</title>
<polygon fill="none" stroke="black" points="266.608,-60 211.392,-60 211.392,-24 266.608,-24 266.608,-60"/>
<text text-anchor="middle" x="239" y="-38.7" font-family="Courier,monospace" font-size="11.00">WpScss</text>
</g>
<!-- \\Jr\\WpScss&#45;&gt;\\Jr\\WpInfoHash -->
<g id="edge4" class="edge"><title>\\Jr\\WpScss&#45;&gt;\\Jr\\WpInfoHash</title>
<path fill="none" stroke="black" d="M211.125,-46.2188C185.829,-50.1897 147.305,-56.237 116.304,-61.1034"/>
<polygon fill="none" stroke="black" points="115.446,-57.6953 106.109,-62.7038 116.531,-64.6106 115.446,-57.6953"/>
</g>
<!-- \\Jr\\WpScssSettings&#45;&gt;\\Jr\\MainSettingsPage -->
<g id="edge5" class="edge"><title>\\Jr\\WpScssSettings&#45;&gt;\\Jr\\MainSettingsPage</title>
<path fill="none" stroke="black" d="M733.49,-96C714.319,-96 692.413,-96 672.052,-96"/>
<polygon fill="none" stroke="black" points="671.885,-92.5001 661.885,-96 671.885,-99.5001 671.885,-92.5001"/>
</g>
<!-- \\Jr\\WpSettingsHelper&#45;&gt;\\Jr\\WpInfoHash -->
<g id="edge6" class="edge"><title>\\Jr\\WpSettingsHelper&#45;&gt;\\Jr\\WpInfoHash</title>
<path fill="none" stroke="black" d="M178.325,-86.6325C158,-83.4418 135.503,-79.9104 116.014,-76.8511"/>
<polygon fill="none" stroke="black" points="116.546,-73.3918 106.125,-75.2986 115.461,-80.3071 116.546,-73.3918"/>
</g>
</g>
</svg>
