<?xml version="1.0" encoding="UTF-8" standalone="no"?>
<!DOCTYPE svg PUBLIC "-//W3C//DTD SVG 1.1//EN"
 "http://www.w3.org/Graphics/SVG/1.1/DTD/svg11.dtd">
<!-- Generated by graphviz version 2.36.0 (20140111.2315)
 -->
<!-- Title: G Pages: 1 -->
<svg width="774pt" height="95pt"
 viewBox="0.00 0.00 774.00 95.00" xmlns="http://www.w3.org/2000/svg" xmlns:xlink="http://www.w3.org/1999/xlink">
<g id="graph0" class="graph" transform="scale(1 1) rotate(0) translate(4 91)">
<title>G</title>
<polygon fill="white" stroke="none" points="-4,4 -4,-91 770,-91 770,4 -4,4"/>
<g id="clust1" class="cluster"><title>cluster_Global</title>
<path fill="none" stroke="gray" d="M20,-8C20,-8 746,-8 746,-8 752,-8 758,-14 758,-20 758,-20 758,-67 758,-67 758,-73 752,-79 746,-79 746,-79 20,-79 20,-79 14,-79 8,-73 8,-67 8,-67 8,-20 8,-20 8,-14 14,-8 20,-8"/>
<text text-anchor="middle" x="383" y="-66.2" font-family="Times,serif" font-size="11.00" fill="gray">Global</text>
</g>
<!-- \\HelperModule -->
<g id="node1" class="node"><title>\\HelperModule</title>
<polygon fill="none" stroke="black" points="111.713,-52 16.2869,-52 16.2869,-16 111.713,-16 111.713,-52"/>
<text text-anchor="middle" x="64" y="-30.7" font-family="Courier,monospace" font-size="11.00">HelperModule</text>
</g>
<!-- \\PersistArgs -->
<g id="node2" class="node"><title>\\PersistArgs</title>
<polygon fill="none" stroke="black" points="273.113,-52 184.887,-52 184.887,-16 273.113,-16 273.113,-52"/>
<text text-anchor="start" x="195.995" y="-36.2" font-family="Courier,monospace" font-size="11.00">«abstract»</text>
<text text-anchor="start" x="192.694" y="-25.2" font-family="Courier,monospace" font-size="11.00">PersistArgs</text>
</g>
<!-- \\PersistArgs&#45;&gt;\\HelperModule -->
<g id="edge1" class="edge"><title>\\PersistArgs&#45;&gt;\\HelperModule</title>
<path fill="none" stroke="black" d="M184.747,-34C165.544,-34 142.678,-34 122.098,-34"/>
<polygon fill="none" stroke="black" points="121.892,-30.5001 111.892,-34 121.892,-37.5001 121.892,-30.5001"/>
</g>
<!-- \\PluginData -->
<g id="node3" class="node"><title>\\PluginData</title>
<polygon fill="none" stroke="black" points="428.011,-52 345.989,-52 345.989,-16 428.011,-16 428.011,-52"/>
<text text-anchor="middle" x="387" y="-30.7" font-family="Courier,monospace" font-size="11.00">PluginData</text>
</g>
<!-- \\PluginData&#45;&gt;\\PersistArgs -->
<g id="edge2" class="edge"><title>\\PluginData&#45;&gt;\\PersistArgs</title>
<path fill="none" stroke="black" d="M345.826,-34C326.828,-34 303.879,-34 283.437,-34"/>
<polygon fill="none" stroke="black" points="283.322,-30.5001 273.322,-34 283.322,-37.5001 283.322,-30.5001"/>
</g>
<!-- \\SettingsHelper -->
<g id="node4" class="node"><title>\\SettingsHelper</title>
<polygon fill="none" stroke="black" points="608.416,-52 499.584,-52 499.584,-16 608.416,-16 608.416,-52"/>
<text text-anchor="middle" x="554" y="-30.7" font-family="Courier,monospace" font-size="11.00">SettingsHelper</text>
</g>
<!-- \\SettingsHelper&#45;&gt;\\PluginData -->
<g id="edge3" class="edge"><title>\\SettingsHelper&#45;&gt;\\PluginData</title>
<path fill="none" stroke="black" d="M499.429,-34C479.807,-34 457.685,-34 438.355,-34"/>
<polygon fill="none" stroke="black" points="438.233,-30.5001 428.233,-34 438.233,-37.5001 438.233,-30.5001"/>
</g>
<!-- \\WpPlugin -->
<g id="node5" class="node"><title>\\WpPlugin</title>
<polygon fill="none" stroke="black" points="749.309,-52 680.691,-52 680.691,-16 749.309,-16 749.309,-52"/>
<text text-anchor="middle" x="715" y="-30.7" font-family="Courier,monospace" font-size="11.00">WpPlugin</text>
</g>
<!-- \\WpPlugin&#45;&gt;\\SettingsHelper -->
<g id="edge4" class="edge"><title>\\WpPlugin&#45;&gt;\\SettingsHelper</title>
<path fill="none" stroke="black" d="M680.668,-34C662.669,-34 639.839,-34 618.589,-34"/>
<polygon fill="none" stroke="black" points="618.313,-30.5001 608.313,-34 618.313,-37.5001 618.313,-30.5001"/>
</g>
</g>
</svg>
