<?xml version="1.0" encoding="UTF-8" standalone="no"?>
<!DOCTYPE svg PUBLIC "-//W3C//DTD SVG 1.1//EN"
 "http://www.w3.org/Graphics/SVG/1.1/DTD/svg11.dtd">
<!-- Generated by graphviz version 2.36.0 (20140111.2315)
 -->
<!-- Title: G Pages: 1 -->
<svg width="982pt" height="149pt"
 viewBox="0.00 0.00 982.00 149.00" xmlns="http://www.w3.org/2000/svg" xmlns:xlink="http://www.w3.org/1999/xlink">
<g id="graph0" class="graph" transform="scale(1 1) rotate(0) translate(4 145)">
<title>G</title>
<polygon fill="white" stroke="none" points="-4,4 -4,-145 978,-145 978,4 -4,4"/>
<g id="clust1" class="cluster"><title>cluster_Global</title>
<path fill="none" stroke="gray" d="M20,-8C20,-8 954,-8 954,-8 960,-8 966,-14 966,-20 966,-20 966,-121 966,-121 966,-127 960,-133 954,-133 954,-133 20,-133 20,-133 14,-133 8,-127 8,-121 8,-121 8,-20 8,-20 8,-14 14,-8 20,-8"/>
<text text-anchor="middle" x="487" y="-120.2" font-family="Times,serif" font-size="11.00" fill="gray">Global</text>
</g>
<!-- \\HelperModule -->
<g id="node1" class="node"><title>\\HelperModule</title>
<polygon fill="none" stroke="black" points="111.713,-79 16.2869,-79 16.2869,-43 111.713,-43 111.713,-79"/>
<text text-anchor="middle" x="64" y="-57.7" font-family="Courier,monospace" font-size="11.00">HelperModule</text>
</g>
<!-- \\PersistArgs -->
<g id="node2" class="node"><title>\\PersistArgs</title>
<polygon fill="none" stroke="black" points="273.113,-79 184.887,-79 184.887,-43 273.113,-43 273.113,-79"/>
<text text-anchor="start" x="195.995" y="-63.2" font-family="Courier,monospace" font-size="11.00">«abstract»</text>
<text text-anchor="start" x="192.694" y="-52.2" font-family="Courier,monospace" font-size="11.00">PersistArgs</text>
</g>
<!-- \\PersistArgs&#45;&gt;\\HelperModule -->
<g id="edge1" class="edge"><title>\\PersistArgs&#45;&gt;\\HelperModule</title>
<path fill="none" stroke="black" d="M184.747,-61C165.544,-61 142.678,-61 122.098,-61"/>
<polygon fill="none" stroke="black" points="121.892,-57.5001 111.892,-61 121.892,-64.5001 121.892,-57.5001"/>
</g>
<!-- \\BaseData -->
<g id="node3" class="node"><title>\\BaseData</title>
<polygon fill="none" stroke="black" points="415.309,-79 346.691,-79 346.691,-43 415.309,-43 415.309,-79"/>
<text text-anchor="middle" x="381" y="-57.7" font-family="Courier,monospace" font-size="11.00">BaseData</text>
</g>
<!-- \\BaseData&#45;&gt;\\PersistArgs -->
<g id="edge2" class="edge"><title>\\BaseData&#45;&gt;\\PersistArgs</title>
<path fill="none" stroke="black" d="M346.337,-61C327.78,-61 304.312,-61 283.322,-61"/>
<polygon fill="none" stroke="black" points="283.249,-57.5001 273.249,-61 283.249,-64.5001 283.249,-57.5001"/>
</g>
<!-- \\PluginData -->
<g id="node4" class="node"><title>\\PluginData</title>
<polygon fill="none" stroke="black" points="570.011,-106 487.989,-106 487.989,-70 570.011,-70 570.011,-106"/>
<text text-anchor="middle" x="529" y="-84.7" font-family="Courier,monospace" font-size="11.00">PluginData</text>
</g>
<!-- \\PluginData&#45;&gt;\\BaseData -->
<g id="edge3" class="edge"><title>\\PluginData&#45;&gt;\\BaseData</title>
<path fill="none" stroke="black" d="M487.718,-80.5507C468.456,-76.9884 445.361,-72.7174 425.677,-69.0773"/>
<polygon fill="none" stroke="black" points="426.203,-65.6152 415.733,-67.2383 424.93,-72.4985 426.203,-65.6152"/>
</g>
<!-- \\PluginSettingsHelper -->
<g id="node5" class="node"><title>\\PluginSettingsHelper</title>
<polygon fill="none" stroke="black" points="790.021,-106 641.979,-106 641.979,-70 790.021,-70 790.021,-106"/>
<text text-anchor="middle" x="716" y="-84.7" font-family="Courier,monospace" font-size="11.00">PluginSettingsHelper</text>
</g>
<!-- \\PluginSettingsHelper&#45;&gt;\\PluginData -->
<g id="edge4" class="edge"><title>\\PluginSettingsHelper&#45;&gt;\\PluginData</title>
<path fill="none" stroke="black" d="M641.883,-88C621.261,-88 599.292,-88 580.332,-88"/>
<polygon fill="none" stroke="black" points="580.135,-84.5001 570.135,-88 580.135,-91.5001 580.135,-84.5001"/>
</g>
<!-- \\ThemeData -->
<g id="node6" class="node"><title>\\ThemeData</title>
<polygon fill="none" stroke="black" points="566.911,-52 491.089,-52 491.089,-16 566.911,-16 566.911,-52"/>
<text text-anchor="middle" x="529" y="-30.7" font-family="Courier,monospace" font-size="11.00">ThemeData</text>
</g>
<!-- \\ThemeData&#45;&gt;\\BaseData -->
<g id="edge5" class="edge"><title>\\ThemeData&#45;&gt;\\BaseData</title>
<path fill="none" stroke="black" d="M491.158,-40.8132C471.122,-44.5186 446.223,-49.1231 425.267,-52.9985"/>
<polygon fill="none" stroke="black" points="424.532,-49.5751 415.335,-54.8353 425.805,-56.4584 424.532,-49.5751"/>
</g>
<!-- \\ThemeSettingsHelper -->
<g id="node7" class="node"><title>\\ThemeSettingsHelper</title>
<polygon fill="none" stroke="black" points="786.921,-52 645.079,-52 645.079,-16 786.921,-16 786.921,-52"/>
<text text-anchor="middle" x="716" y="-30.7" font-family="Courier,monospace" font-size="11.00">ThemeSettingsHelper</text>
</g>
<!-- \\ThemeSettingsHelper&#45;&gt;\\ThemeData -->
<g id="edge6" class="edge"><title>\\ThemeSettingsHelper&#45;&gt;\\ThemeData</title>
<path fill="none" stroke="black" d="M645.059,-34C622.301,-34 597.602,-34 576.943,-34"/>
<polygon fill="none" stroke="black" points="576.847,-30.5001 566.847,-34 576.847,-37.5001 576.847,-30.5001"/>
</g>
<!-- \\WpPluginBase -->
<g id="node8" class="node"><title>\\WpPluginBase</title>
<polygon fill="none" stroke="black" points="957.713,-106 862.287,-106 862.287,-70 957.713,-70 957.713,-106"/>
<text text-anchor="middle" x="910" y="-84.7" font-family="Courier,monospace" font-size="11.00">WpPluginBase</text>
</g>
<!-- \\WpPluginBase&#45;&gt;\\PluginSettingsHelper -->
<g id="edge7" class="edge"><title>\\WpPluginBase&#45;&gt;\\PluginSettingsHelper</title>
<path fill="none" stroke="black" d="M862.032,-88C843.427,-88 821.465,-88 800.335,-88"/>
<polygon fill="none" stroke="black" points="800.048,-84.5001 790.048,-88 800.048,-91.5001 800.048,-84.5001"/>
</g>
<!-- \\WpThemeBase -->
<g id="node9" class="node"><title>\\WpThemeBase</title>
<polygon fill="none" stroke="black" points="954.113,-52 865.887,-52 865.887,-16 954.113,-16 954.113,-52"/>
<text text-anchor="middle" x="910" y="-30.7" font-family="Courier,monospace" font-size="11.00">WpThemeBase</text>
</g>
<!-- \\WpThemeBase&#45;&gt;\\ThemeSettingsHelper -->
<g id="edge8" class="edge"><title>\\WpThemeBase&#45;&gt;\\ThemeSettingsHelper</title>
<path fill="none" stroke="black" d="M865.432,-34C845.193,-34 820.468,-34 797.047,-34"/>
<polygon fill="none" stroke="black" points="796.753,-30.5001 786.753,-34 796.753,-37.5001 796.753,-30.5001"/>
</g>
</g>
</svg>
