<?xml version="1.0" encoding="UTF-8" standalone="no"?>
<!DOCTYPE svg PUBLIC "-//W3C//DTD SVG 1.1//EN"
 "http://www.w3.org/Graphics/SVG/1.1/DTD/svg11.dtd">
<!-- Generated by graphviz version 2.36.0 (20140111.2315)
 -->
<!-- Title: G Pages: 1 -->
<svg width="804pt" height="671pt"
 viewBox="0.00 0.00 804.00 671.00" xmlns="http://www.w3.org/2000/svg" xmlns:xlink="http://www.w3.org/1999/xlink">
<g id="graph0" class="graph" transform="scale(1 1) rotate(0) translate(4 667)">
<title>G</title>
<polygon fill="white" stroke="none" points="-4,4 -4,-667 800,-667 800,4 -4,4"/>
<g id="clust1" class="cluster"><title>cluster_Global</title>
<path fill="none" stroke="gray" d="M20,-98C20,-98 776,-98 776,-98 782,-98 788,-104 788,-110 788,-110 788,-643 788,-643 788,-649 782,-655 776,-655 776,-655 20,-655 20,-655 14,-655 8,-649 8,-643 8,-643 8,-110 8,-110 8,-104 14,-98 20,-98"/>
<text text-anchor="middle" x="398" y="-642.2" font-family="Times,serif" font-size="11.00" fill="gray">Global</text>
</g>
<!-- \\WpThemeBase -->
<g id="node1" class="node"><title>\\WpThemeBase</title>
<polygon fill="none" stroke="black" points="733.113,-196 644.887,-196 644.887,-160 733.113,-160 733.113,-196"/>
<text text-anchor="middle" x="689" y="-174.7" font-family="Courier,monospace" font-size="11.00">WpThemeBase</text>
</g>
<!-- \\ThemeSettingsHelper -->
<g id="node15" class="node"><title>\\ThemeSettingsHelper</title>
<ellipse fill="none" stroke="black" cx="436" cy="-72" rx="89.8532" ry="18"/>
<text text-anchor="middle" x="436" y="-67.8" font-family="Times,serif" font-size="14.00" fill="gray">\ThemeSettingsHelper</text>
</g>
<!-- \\WpThemeBase&#45;&gt;\\ThemeSettingsHelper -->
<g id="edge1" class="edge"><title>\\WpThemeBase&#45;&gt;\\ThemeSettingsHelper</title>
<path fill="none" stroke="black" d="M644.585,-168.542C629.363,-164.31 612.465,-158.541 598,-151 561.809,-132.133 562.644,-111.972 526,-94 521.177,-91.6345 516.079,-89.5104 510.862,-87.6051"/>
<polygon fill="none" stroke="black" points="511.971,-84.2855 501.377,-84.407 509.734,-90.9186 511.971,-84.2855"/>
</g>
<!-- \\HelperModule -->
<g id="node2" class="node"><title>\\HelperModule</title>
<polygon fill="none" stroke="black" points="111.713,-304 16.2869,-304 16.2869,-268 111.713,-268 111.713,-304"/>
<text text-anchor="middle" x="64" y="-282.7" font-family="Courier,monospace" font-size="11.00">HelperModule</text>
</g>
<!-- \\PersistArgs -->
<g id="node3" class="node"><title>\\PersistArgs</title>
<polygon fill="none" stroke="black" points="273.113,-304 184.887,-304 184.887,-268 273.113,-268 273.113,-304"/>
<text text-anchor="start" x="195.995" y="-288.2" font-family="Courier,monospace" font-size="11.00">«abstract»</text>
<text text-anchor="start" x="192.694" y="-277.2" font-family="Courier,monospace" font-size="11.00">PersistArgs</text>
</g>
<!-- \\PersistArgs&#45;&gt;\\HelperModule -->
<g id="edge2" class="edge"><title>\\PersistArgs&#45;&gt;\\HelperModule</title>
<path fill="none" stroke="black" d="M184.747,-286C165.544,-286 142.678,-286 122.098,-286"/>
<polygon fill="none" stroke="black" points="121.892,-282.5 111.892,-286 121.892,-289.5 121.892,-282.5"/>
</g>
<!-- \\scssc -->
<g id="node4" class="node"><title>\\scssc</title>
<polygon fill="none" stroke="black" points="716,-574 662,-574 662,-538 716,-538 716,-574"/>
<text text-anchor="middle" x="689" y="-552.7" font-family="Courier,monospace" font-size="11.00">scssc</text>
</g>
<!-- \\scss_parser -->
<g id="node5" class="node"><title>\\scss_parser</title>
<polygon fill="none" stroke="black" points="733.113,-520 644.887,-520 644.887,-484 733.113,-484 733.113,-520"/>
<text text-anchor="middle" x="689" y="-498.7" font-family="Courier,monospace" font-size="11.00">scss_parser</text>
</g>
<!-- \\scss_formatter -->
<g id="node6" class="node"><title>\\scss_formatter</title>
<polygon fill="none" stroke="black" points="490.416,-466 381.584,-466 381.584,-430 490.416,-430 490.416,-466"/>
<text text-anchor="middle" x="436" y="-444.7" font-family="Courier,monospace" font-size="11.00">scss_formatter</text>
</g>
<!-- \\scss_formatter_nested -->
<g id="node7" class="node"><title>\\scss_formatter_nested</title>
<polygon fill="none" stroke="black" points="766.123,-466 611.877,-466 611.877,-430 766.123,-430 766.123,-466"/>
<text text-anchor="middle" x="689" y="-444.7" font-family="Courier,monospace" font-size="11.00">scss_formatter_nested</text>
</g>
<!-- \\scss_formatter_nested&#45;&gt;\\scss_formatter -->
<g id="edge3" class="edge"><title>\\scss_formatter_nested&#45;&gt;\\scss_formatter</title>
<path fill="none" stroke="black" d="M611.669,-448C576.117,-448 534.311,-448 500.514,-448"/>
<polygon fill="none" stroke="black" points="500.298,-444.5 490.298,-448 500.298,-451.5 500.298,-444.5"/>
</g>
<!-- \\scss_formatter_compressed -->
<g id="node8" class="node"><title>\\scss_formatter_compressed</title>
<polygon fill="none" stroke="black" points="779.527,-412 598.473,-412 598.473,-376 779.527,-376 779.527,-412"/>
<text text-anchor="middle" x="689" y="-390.7" font-family="Courier,monospace" font-size="11.00">scss_formatter_compressed</text>
</g>
<!-- \\scss_formatter_compressed&#45;&gt;\\scss_formatter -->
<g id="edge4" class="edge"><title>\\scss_formatter_compressed&#45;&gt;\\scss_formatter</title>
<path fill="none" stroke="black" d="M604.072,-412.056C570.251,-419.333 531.889,-427.586 500.461,-434.347"/>
<polygon fill="none" stroke="black" points="499.556,-430.962 490.516,-436.487 501.028,-437.805 499.556,-430.962"/>
</g>
<!-- \\scss_formatter_minified -->
<g id="node9" class="node"><title>\\scss_formatter_minified</title>
<polygon fill="none" stroke="black" points="772.825,-628 605.175,-628 605.175,-592 772.825,-592 772.825,-628"/>
<text text-anchor="middle" x="689" y="-606.7" font-family="Courier,monospace" font-size="11.00">scss_formatter_minified</text>
</g>
<!-- \\scss_formatter_minified&#45;&gt;\\scss_formatter -->
<g id="edge5" class="edge"><title>\\scss_formatter_minified&#45;&gt;\\scss_formatter</title>
<path fill="none" stroke="black" d="M617.587,-591.945C610.813,-589.303 604.174,-586.33 598,-583 543.245,-553.469 489.99,-503.369 460.538,-473.213"/>
<polygon fill="none" stroke="black" points="463.04,-470.765 453.577,-466 458.003,-475.626 463.04,-470.765"/>
</g>
<!-- \\scss_server -->
<g id="node10" class="node"><title>\\scss_server</title>
<polygon fill="none" stroke="black" points="733.113,-304 644.887,-304 644.887,-268 733.113,-268 733.113,-304"/>
<text text-anchor="middle" x="689" y="-282.7" font-family="Courier,monospace" font-size="11.00">scss_server</text>
</g>
<!-- \\WpPluginBase -->
<g id="node11" class="node"><title>\\WpPluginBase</title>
<polygon fill="none" stroke="black" points="736.713,-142 641.287,-142 641.287,-106 736.713,-106 736.713,-142"/>
<text text-anchor="middle" x="689" y="-120.7" font-family="Courier,monospace" font-size="11.00">WpPluginBase</text>
</g>
<!-- \\PluginSettingsHelper -->
<g id="node16" class="node"><title>\\PluginSettingsHelper</title>
<ellipse fill="none" stroke="black" cx="436" cy="-18" rx="88.443" ry="18"/>
<text text-anchor="middle" x="436" y="-13.8" font-family="Times,serif" font-size="14.00" fill="gray">\PluginSettingsHelper</text>
</g>
<!-- \\WpPluginBase&#45;&gt;\\PluginSettingsHelper -->
<g id="edge6" class="edge"><title>\\WpPluginBase&#45;&gt;\\PluginSettingsHelper</title>
<path fill="none" stroke="black" d="M654.88,-105.913C622.621,-88.7629 571.874,-63.0114 526,-45 517.501,-41.6631 508.414,-38.483 499.414,-35.5533"/>
<polygon fill="none" stroke="black" points="500.304,-32.1638 489.714,-32.4768 498.188,-38.8362 500.304,-32.1638"/>
</g>
<!-- \\WpInfoHash -->
<g id="node12" class="node"><title>\\WpInfoHash</title>
<polygon fill="none" stroke="black" points="477.011,-304 394.989,-304 394.989,-268 477.011,-268 477.011,-304"/>
<text text-anchor="middle" x="436" y="-282.7" font-family="Courier,monospace" font-size="11.00">WpInfoHash</text>
</g>
<!-- \\WpInfoHash&#45;&gt;\\PersistArgs -->
<g id="edge7" class="edge"><title>\\WpInfoHash&#45;&gt;\\PersistArgs</title>
<path fill="none" stroke="black" d="M394.987,-286C363.172,-286 318.367,-286 283.476,-286"/>
<polygon fill="none" stroke="black" points="283.456,-282.5 273.456,-286 283.456,-289.5 283.456,-282.5"/>
</g>
<!-- \\WpScss -->
<g id="node13" class="node"><title>\\WpScss</title>
<polygon fill="none" stroke="black" points="716.608,-358 661.392,-358 661.392,-322 716.608,-322 716.608,-358"/>
<text text-anchor="middle" x="689" y="-336.7" font-family="Courier,monospace" font-size="11.00">WpScss</text>
</g>
<!-- \\WpScss&#45;&gt;\\WpInfoHash -->
<g id="edge8" class="edge"><title>\\WpScss&#45;&gt;\\WpInfoHash</title>
<path fill="none" stroke="black" d="M661.139,-334.221C619.76,-325.319 539.735,-308.102 487.354,-296.833"/>
<polygon fill="none" stroke="black" points="487.779,-293.345 477.267,-294.663 486.307,-300.188 487.779,-293.345"/>
</g>
<!-- \\WpSettingsHelper -->
<g id="node14" class="node"><title>\\WpSettingsHelper</title>
<polygon fill="none" stroke="black" points="749.618,-250 628.382,-250 628.382,-214 749.618,-214 749.618,-250"/>
<text text-anchor="middle" x="689" y="-228.7" font-family="Courier,monospace" font-size="11.00">WpSettingsHelper</text>
</g>
<!-- \\WpSettingsHelper&#45;&gt;\\WpInfoHash -->
<g id="edge9" class="edge"><title>\\WpSettingsHelper&#45;&gt;\\WpInfoHash</title>
<path fill="none" stroke="black" d="M628.198,-244.866C585.155,-254.126 527.754,-266.475 487.112,-275.219"/>
<polygon fill="none" stroke="black" points="486.199,-271.835 477.159,-277.36 487.671,-278.679 486.199,-271.835"/>
</g>
</g>
</svg>
