<?xml version="1.0" encoding="UTF-8" standalone="no"?>
<!DOCTYPE svg PUBLIC "-//W3C//DTD SVG 1.1//EN"
 "http://www.w3.org/Graphics/SVG/1.1/DTD/svg11.dtd">
<!-- Generated by graphviz version 2.36.0 (20140111.2315)
 -->
<!-- Title: G Pages: 1 -->
<svg width="352pt" height="349pt"
 viewBox="0.00 0.00 352.00 349.00" xmlns="http://www.w3.org/2000/svg" xmlns:xlink="http://www.w3.org/1999/xlink">
<g id="graph0" class="graph" transform="scale(1 1) rotate(0) translate(4 345)">
<title>G</title>
<polygon fill="white" stroke="none" points="-4,4 -4,-345 348,-345 348,4 -4,4"/>
<g id="clust1" class="cluster"><title>cluster_Global</title>
<path fill="none" stroke="gray" d="M220,-11C220,-11 324,-11 324,-11 330,-11 336,-17 336,-23 336,-23 336,-321 336,-321 336,-327 330,-333 324,-333 324,-333 220,-333 220,-333 214,-333 208,-327 208,-321 208,-321 208,-23 208,-23 208,-17 214,-11 220,-11"/>
<text text-anchor="middle" x="272" y="-320.2" font-family="Times,serif" font-size="11.00" fill="gray">Global</text>
</g>
<g id="clust2" class="cluster"><title>cluster_\Jr</title>
<path fill="none" stroke="gray" d="M228,-19C228,-19 316,-19 316,-19 322,-19 328,-25 328,-31 328,-31 328,-294 328,-294 328,-300 322,-306 316,-306 316,-306 228,-306 228,-306 222,-306 216,-300 216,-294 216,-294 216,-31 216,-31 216,-25 222,-19 228,-19"/>
<text text-anchor="middle" x="272" y="-293.2" font-family="Times,serif" font-size="11.00" fill="gray">Jr</text>
</g>
<!-- \\Jr\\Exc -->
<g id="node1" class="node"><title>\\Jr\\Exc</title>
<polygon fill="none" stroke="black" points="299,-279 245,-279 245,-243 299,-243 299,-279"/>
<text text-anchor="middle" x="272" y="-257.7" font-family="Courier,monospace" font-size="11.00">Exc</text>
</g>
<!-- \\Jr\\Exception -->
<g id="node6" class="node"><title>\\Jr\\Exception</title>
<ellipse fill="none" stroke="black" cx="76" cy="-261" rx="57.0219" ry="18"/>
<text text-anchor="middle" x="76" y="-256.8" font-family="Times,serif" font-size="14.00" fill="gray">\Jr\Exception</text>
</g>
<!-- \\Jr\\Exc&#45;&gt;\\Jr\\Exception -->
<g id="edge1" class="edge"><title>\\Jr\\Exc&#45;&gt;\\Jr\\Exception</title>
<path fill="none" stroke="black" d="M244.836,-261C218.95,-261 178.263,-261 143.434,-261"/>
<polygon fill="none" stroke="black" points="143.31,-257.5 133.31,-261 143.31,-264.5 143.31,-257.5"/>
</g>
<!-- \\Jr\\test -->
<g id="node2" class="node"><title>\\Jr\\test</title>
<polygon fill="none" stroke="black" points="299,-225 245,-225 245,-189 299,-189 299,-225"/>
<text text-anchor="middle" x="272" y="-203.7" font-family="Courier,monospace" font-size="11.00">test</text>
</g>
<!-- \\Jr\\To -->
<g id="node3" class="node"><title>\\Jr\\To</title>
<polygon fill="none" stroke="black" points="299,-171 245,-171 245,-135 299,-135 299,-171"/>
<text text-anchor="middle" x="272" y="-149.7" font-family="Courier,monospace" font-size="11.00">To</text>
</g>
<!-- \\Jr\\Tree -->
<g id="node4" class="node"><title>\\Jr\\Tree</title>
<polygon fill="none" stroke="black" points="299,-117 245,-117 245,-81 299,-81 299,-117"/>
<text text-anchor="middle" x="272" y="-95.7" font-family="Courier,monospace" font-size="11.00">Tree</text>
</g>
<!-- \\Serializable -->
<g id="node7" class="node"><title>\\Serializable</title>
<ellipse fill="none" stroke="black" cx="76" cy="-180" rx="54.1058" ry="18"/>
<text text-anchor="middle" x="76" y="-175.8" font-family="Times,serif" font-size="14.00" fill="gray">\Serializable</text>
</g>
<!-- \\Jr\\Tree&#45;&gt;\\Serializable -->
<g id="edge2" class="edge"><title>\\Jr\\Tree&#45;&gt;\\Serializable</title>
<path fill="none" stroke="black" stroke-dasharray="1,5" d="M244.832,-109.908C233.463,-114.726 220.022,-120.529 208,-126 182.851,-137.445 177.477,-142.306 152,-153 143.098,-156.737 133.477,-160.442 124.192,-163.855"/>
<polygon fill="none" stroke="black" points="122.893,-160.603 114.68,-167.296 125.274,-167.186 122.893,-160.603"/>
</g>
<!-- \\IteratorAggregate -->
<g id="node8" class="node"><title>\\IteratorAggregate</title>
<ellipse fill="none" stroke="black" cx="76" cy="-126" rx="75.3276" ry="18"/>
<text text-anchor="middle" x="76" y="-121.8" font-family="Times,serif" font-size="14.00" fill="gray">\IteratorAggregate</text>
</g>
<!-- \\Jr\\Tree&#45;&gt;\\IteratorAggregate -->
<g id="edge3" class="edge"><title>\\Jr\\Tree&#45;&gt;\\IteratorAggregate</title>
<path fill="none" stroke="black" stroke-dasharray="1,5" d="M244.836,-102.641C220.935,-105.968 184.418,-111.05 151.543,-115.625"/>
<polygon fill="none" stroke="black" points="150.897,-112.182 141.475,-117.027 151.862,-119.115 150.897,-112.182"/>
</g>
<!-- \\ArrayAccess -->
<g id="node9" class="node"><title>\\ArrayAccess</title>
<ellipse fill="none" stroke="black" cx="76" cy="-72" rx="58.465" ry="18"/>
<text text-anchor="middle" x="76" y="-67.8" font-family="Times,serif" font-size="14.00" fill="gray">\ArrayAccess</text>
</g>
<!-- \\Jr\\Tree&#45;&gt;\\ArrayAccess -->
<g id="edge4" class="edge"><title>\\Jr\\Tree&#45;&gt;\\ArrayAccess</title>
<path fill="none" stroke="black" stroke-dasharray="1,5" d="M244.836,-95.3587C218.008,-91.6249 175.285,-85.6788 139.658,-80.7205"/>
<polygon fill="none" stroke="black" points="139.724,-77.196 129.337,-79.2841 138.759,-84.1292 139.724,-77.196"/>
</g>
<!-- \\Countable -->
<g id="node10" class="node"><title>\\Countable</title>
<ellipse fill="none" stroke="black" cx="76" cy="-18" rx="48.8273" ry="18"/>
<text text-anchor="middle" x="76" y="-13.8" font-family="Times,serif" font-size="14.00" fill="gray">\Countable</text>
</g>
<!-- \\Jr\\Tree&#45;&gt;\\Countable -->
<g id="edge5" class="edge"><title>\\Jr\\Tree&#45;&gt;\\Countable</title>
<path fill="none" stroke="black" stroke-dasharray="1,5" d="M244.832,-88.0921C233.463,-83.2739 220.022,-77.4712 208,-72 182.851,-60.555 177.477,-55.6939 152,-45 142.525,-41.0231 132.238,-37.0818 122.405,-33.49"/>
<polygon fill="none" stroke="black" points="123.366,-30.1163 112.772,-30.0264 120.998,-36.7034 123.366,-30.1163"/>
</g>
<!-- \\Jr\\TPersistArgs -->
<g id="node5" class="node"><title>\\Jr\\TPersistArgs</title>
<polygon fill="none" stroke="black" points="319.713,-63 224.287,-63 224.287,-27 319.713,-27 319.713,-63"/>
<text text-anchor="middle" x="272" y="-41.7" font-family="Courier,monospace" font-size="11.00">TPersistArgs</text>
</g>
</g>
</svg>
